<?xml version="1.0" encoding="UTF-8" standalone="no" ?>
<!DOCTYPE svg PUBLIC "-//W3C//DTD SVG 1.1//EN" "http://www.w3.org/Graphics/SVG/1.1/DTD/svg11.dtd">
<svg xmlns="http://www.w3.org/2000/svg" xmlns:xlink="http://www.w3.org/1999/xlink" version="1.1" width="640" height="480" viewBox="0 0 640 480" xml:space="preserve">
<desc>Created with Fabric.js 3.6.3</desc>
<defs>
</defs>
<g transform="matrix(0.49 0 0 0.49 214.67 296.83)"  >
<g style=""   >
		<g transform="matrix(1.33 0 0 1.33 11.38 -233.78)"  >
<path style="stroke: none; stroke-width: 1; stroke-dasharray: none; stroke-linecap: butt; stroke-dashoffset: 0; stroke-linejoin: miter; stroke-miterlimit: 4; fill: rgb(0,0,0); fill-rule: nonzero; opacity: 1;"  transform=" translate(-358.95, -174.97)" d="m 506.89 128.19 v -0.78906 c -0.34766 -0.69531 -0.78906 -1.3438 -1.3125 -1.9219 l -0.4375 -0.52344 v -0.003906 c -0.66797 -0.64062 -1.4375 -1.1719 -2.2734 -1.5742 l -148.75 -70 c -2.3555 -1.1055 -5.082 -1.1055 -7.4375 0 l -148.75 70 c -3.0703 1.4414 -5.0273 4.5273 -5.0273 7.918 s 1.957 6.4766 5.0273 7.918 l 38.324 18.289 v 78.75 c 0.011719 3.293 1.8711 6.3047 4.8125 7.7891 l 105 52.5 c 2.3789 1.1328 5.1445 1.1328 7.5234 0 l 96.25 -43.75 c 3.082 -1.3828 5.0898 -4.4141 5.1641 -7.7891 v -83.477 l 35 -16.449 v 29.926 h -8.75 c -4.832 0 -8.75 3.918 -8.75 8.75 v 52.5 c 0 2.3203 0.92188 4.5469 2.5625 6.1875 s 3.8672 2.5625 6.1875 2.5625 h 35 c 2.3203 0 4.5469 -0.92188 6.1875 -2.5625 s 2.5625 -3.8672 2.5625 -6.1875 v -52.5 c 0 -2.3203 -0.92188 -4.5469 -2.5625 -6.1875 s -3.8672 -2.5625 -6.1875 -2.5625 h -8.75 v -43.75 c -0.019531 -1.0508 -0.22656 -2.0859 -0.61328 -3.0625 z m -69.387 111.21 l -87.5 39.727 l -96.25 -48.301 v -65.188 l 87.5 41.211 v 46.902 h 17.5 v -46.898 l 78.75 -37.102 z m -105 -125.65 v 35 h 17.5 v -8.75 h 109.64 l -109.64 51.539 l -128.19 -60.289 l 128.19 -60.289 l 109.64 51.539 h -109.64 v -8.75 z m 175 113.75 h -17.5 v -35 h 17.5 z" stroke-linecap="round" />
</g>
		<g transform="matrix(1.33 0 0 1.33 -0.93 -94.26)"  >
<path style="stroke: none; stroke-width: 1; stroke-dasharray: none; stroke-linecap: butt; stroke-dashoffset: 0; stroke-linejoin: miter; stroke-miterlimit: 4; fill: rgb(0,0,0); fill-rule: nonzero; opacity: 1;"  transform=" translate(-350, -280)" d="m 350 0 c -74.262 0 -145.48 29.5 -197.99 82.012 c -52.512 52.508 -82.012 123.73 -82.012 197.99 h 17.5 c 0 -69.621 27.656 -136.39 76.883 -185.62 c 49.23 -49.227 116 -76.883 185.62 -76.883 s 136.39 27.656 185.62 76.883 c 49.227 49.23 76.883 116 76.883 185.62 s -27.656 136.39 -76.883 185.62 c -49.23 49.227 -116 76.883 -185.62 76.883 v 17.5 c 74.262 0 145.48 -29.5 197.99 -82.012 c 52.512 -52.508 82.012 -123.73 82.012 -197.99 s -29.5 -145.48 -82.012 -197.99 c -52.508 -52.512 -123.73 -82.012 -197.99 -82.012 z" stroke-linecap="round" />
</g>
		<g transform="matrix(1.33 0 0 1.33 291.63 -105.03)"  >
<path style="stroke: none; stroke-width: 1; stroke-dasharray: none; stroke-linecap: butt; stroke-dashoffset: 0; stroke-linejoin: miter; stroke-miterlimit: 4; fill: rgb(0,0,0); fill-rule: nonzero; opacity: 1;"  transform=" translate(-568.75, -271.25)" d="m 560 262.5 h 17.5 v 17.5 h -17.5 z" stroke-linecap="round" />
</g>
		<g transform="matrix(1.33 0 0 1.33 -291.7 -105.03)"  >
<path style="stroke: none; stroke-width: 1; stroke-dasharray: none; stroke-linecap: butt; stroke-dashoffset: 0; stroke-linejoin: miter; stroke-miterlimit: 4; fill: rgb(0,0,0); fill-rule: nonzero; opacity: 1;"  transform=" translate(-131.25, -271.25)" d="m 122.5 262.5 h 17.5 v 17.5 h -17.5 z" stroke-linecap="round" />
</g>
		<g transform="matrix(1.33 0 0 1.33 -28.2 32.88)"  >
<path style="stroke: none; stroke-width: 1; stroke-dasharray: none; stroke-linecap: butt; stroke-dashoffset: 0; stroke-linejoin: miter; stroke-miterlimit: 4; fill: rgb(0,0,0); fill-rule: nonzero; opacity: 1;"  transform=" translate(-329.39, -374.94)" d="m 436.62 385 c -1.8359 10.414 -7.5234 26.25 -25.375 26.25 h -96.25 v 17.5 h 96.25 c 35 0 43.75 -34.301 43.75 -52.5 c 0 -2.3203 -0.92188 -4.5469 -2.5625 -6.1875 s -3.8672 -2.5625 -6.1875 -2.5625 h -87.5 v -20.824 l 133.35 -66.676 h 50.398 v -17.5 h -52.5 c -1.3711 0.007812 -2.7188 0.33984 -3.9375 0.96094 l -136.06 67.988 l -136.06 -67.988 c -1.2188 -0.62109 -2.5664 -0.95313 -3.9375 -0.96094 h -52.5 v 17.5 h 50.398 l 133.35 66.676 v 20.824 h -113.75 c -2.3242 -0.011719 -4.5625 0.89844 -6.2109 2.5391 l -105 105 l 12.336 12.336 l 102.46 -102.38 z" stroke-linecap="round" />
</g>
		<g transform="matrix(1.33 0 0 1.33 46.49 108.71)"  >
<path style="stroke: none; stroke-width: 1; stroke-dasharray: none; stroke-linecap: butt; stroke-dashoffset: 0; stroke-linejoin: miter; stroke-miterlimit: 4; fill: rgb(0,0,0); fill-rule: nonzero; opacity: 1;"  transform=" translate(-385.34, -431.85)" d="m 452.46 496.21 l 105 -105 c 32.551 -32.551 14.262 -68.164 0 -82.336 c -3.4102 -3.3945 -8.9219 -3.3945 -12.336 0 l -78.75 78.75 l 12.336 12.336 l 71.836 -71.836 h 0.003906 c 5.7109 7.5742 8.3164 17.039 7.293 26.465 c -1.0234 9.4297 -5.6016 18.113 -12.805 24.285 l -102.38 102.38 h -180.16 c -2.3242 -0.011719 -4.5625 0.89844 -6.2109 2.5391 l -61.25 61.25 l 12.336 12.336 l 58.711 -58.625 h 180.16 c 2.3242 0.011719 4.5625 -0.89844 6.2109 -2.5391 z" stroke-linecap="round" />
</g>
		<g transform="matrix(1.33 0 0 1.33 -81.7 93.3)"  >
<path style="stroke: none; stroke-width: 1; stroke-dasharray: none; stroke-linecap: butt; stroke-dashoffset: 0; stroke-linejoin: miter; stroke-miterlimit: 4; fill: rgb(0,0,0); fill-rule: nonzero; opacity: 1;"  transform=" translate(-288.75, -420)" d="m 280 411.25 h 17.5 v 17.5 h -17.5 z" stroke-linecap="round" />
</g>
		<g transform="matrix(1.33 0 0 1.33 -352.4 433.71)"  >
<path style="stroke: none; stroke-width: 1; stroke-dasharray: none; stroke-linecap: butt; stroke-dashoffset: 0; stroke-linejoin: miter; stroke-miterlimit: 4; fill: rgb(0,0,0); fill-rule: nonzero; opacity: 1;"  transform=" translate(-15.74, 15.92)" d="m 29.312 -1.75 c -1.5117 0.78125 -3.0898 1.3711 -4.7344 1.7656 c -1.6367 0.40625 -3.3398 0.60938 -5.1094 0.60938 c -5.3125 0 -9.5273 -1.4844 -12.641 -4.4531 c -3.1055 -2.9688 -4.6562 -7 -4.6562 -12.094 s 1.5508 -9.125 4.6562 -12.094 c 3.1133 -2.9688 7.3281 -4.4531 12.641 -4.4531 c 1.7695 0 3.4727 0.19922 5.1094 0.59375 c 1.6445 0.39844 3.2227 0.99219 4.7344 1.7812 v 6.5938 c -1.5312 -1.0391 -3.0391 -1.8008 -4.5156 -2.2812 c -1.4805 -0.48828 -3.0391 -0.73438 -4.6719 -0.73438 c -2.9375 0 -5.2461 0.94531 -6.9219 2.8281 c -1.6797 1.875 -2.5156 4.4648 -2.5156 7.7656 c 0 3.293 0.83594 5.8828 2.5156 7.7656 c 1.6758 1.875 3.9844 2.8125 6.9219 2.8125 c 1.6328 0 3.1914 -0.23828 4.6719 -0.71875 c 1.4766 -0.48828 2.9844 -1.2539 4.5156 -2.2969 z" stroke-linecap="round" />
</g>
		<g transform="matrix(1.33 0 0 1.33 -313.8 438.63)"  >
<path style="stroke: none; stroke-width: 1; stroke-dasharray: none; stroke-linecap: butt; stroke-dashoffset: 0; stroke-linejoin: miter; stroke-miterlimit: 4; fill: rgb(0,0,0); fill-rule: nonzero; opacity: 1;"  transform=" translate(-12.56, 12.25)" d="m 21.453 -17.406 c -0.67969 -0.3125 -1.3516 -0.53906 -2.0156 -0.6875 c -0.65625 -0.15625 -1.3203 -0.23438 -1.9844 -0.23438 c -1.9688 0 -3.4844 0.63281 -4.5469 1.8906 c -1.0547 1.2617 -1.5781 3.0703 -1.5781 5.4219 v 11.016 h -7.6562 v -23.922 h 7.6562 v 3.9219 c 0.97656 -1.5625 2.1016 -2.7031 3.375 -3.4219 c 1.2812 -0.71875 2.8125 -1.0781 4.5938 -1.0781 c 0.25 0 0.52344 0.011719 0.82812 0.03125 c 0.30078 0.023438 0.73438 0.070312 1.2969 0.14062 z" stroke-linecap="round" />
</g>
		<g transform="matrix(1.33 0 0 1.33 -282.17 439.04)"  >
<path style="stroke: none; stroke-width: 1; stroke-dasharray: none; stroke-linecap: butt; stroke-dashoffset: 0; stroke-linejoin: miter; stroke-miterlimit: 4; fill: rgb(0,0,0); fill-rule: nonzero; opacity: 1;"  transform=" translate(-14.72, 11.94)" d="m 27.562 -12.031 v 2.1875 h -17.891 c 0.1875 1.793 0.83203 3.1367 1.9375 4.0312 c 1.1133 0.89844 2.6719 1.3438 4.6719 1.3438 c 1.6016 0 3.25 -0.23438 4.9375 -0.70312 c 1.6875 -0.47656 3.4219 -1.2031 5.2031 -2.1719 v 5.8906 c -1.8047 0.6875 -3.6094 1.2031 -5.4219 1.5469 c -1.8125 0.35156 -3.6211 0.53125 -5.4219 0.53125 c -4.3359 0 -7.7031 -1.0977 -10.109 -3.2969 c -2.3984 -2.207 -3.5938 -5.2969 -3.5938 -9.2656 c 0 -3.9062 1.1758 -6.9727 3.5312 -9.2031 c 2.3633 -2.2383 5.6094 -3.3594 9.7344 -3.3594 c 3.7578 0 6.7695 1.1367 9.0312 3.4062 c 2.2578 2.2617 3.3906 5.2812 3.3906 9.0625 z m -7.8594 -2.5312 c 0 -1.457 -0.42969 -2.6289 -1.2812 -3.5156 c -0.84375 -0.89453 -1.9492 -1.3438 -3.3125 -1.3438 c -1.4922 0 -2.6992 0.41797 -3.625 1.25 c -0.91797 0.83594 -1.4922 2.0391 -1.7188 3.6094 z" stroke-linecap="round" />
</g>
		<g transform="matrix(1.33 0 0 1.33 -243.6 439.04)"  >
<path style="stroke: none; stroke-width: 1; stroke-dasharray: none; stroke-linecap: butt; stroke-dashoffset: 0; stroke-linejoin: miter; stroke-miterlimit: 4; fill: rgb(0,0,0); fill-rule: nonzero; opacity: 1;"  transform=" translate(-13.98, 11.94)" d="m 14.391 -10.766 c -1.5938 0 -2.793 0.27344 -3.5938 0.8125 c -0.80469 0.54297 -1.2031 1.3398 -1.2031 2.3906 c 0 0.96875 0.32031 1.7305 0.96875 2.2812 c 0.64453 0.54297 1.5469 0.8125 2.7031 0.8125 c 1.4375 0 2.6445 -0.51562 3.625 -1.5469 c 0.98828 -1.0312 1.4844 -2.3203 1.4844 -3.875 v -0.875 z m 11.688 -2.8906 v 13.656 h -7.7031 v -3.5469 c -1.0312 1.4492 -2.1875 2.5078 -3.4688 3.1719 s -2.8398 1 -4.6719 1 c -2.4805 0 -4.4961 -0.72266 -6.0469 -2.1719 c -1.543 -1.4453 -2.3125 -3.3203 -2.3125 -5.625 c 0 -2.8125 0.96094 -4.8672 2.8906 -6.1719 c 1.9375 -1.3125 4.9688 -1.9688 9.0938 -1.9688 h 4.5156 v -0.60938 c 0 -1.207 -0.48047 -2.0938 -1.4375 -2.6562 c -0.94922 -0.5625 -2.4375 -0.84375 -4.4688 -0.84375 c -1.6367 0 -3.1562 0.16797 -4.5625 0.5 c -1.4062 0.32422 -2.7188 0.8125 -3.9375 1.4688 v -5.8281 c 1.6445 -0.40625 3.2891 -0.70703 4.9375 -0.90625 c 1.6562 -0.20703 3.3047 -0.3125 4.9531 -0.3125 c 4.3203 0 7.4375 0.85547 9.3438 2.5625 c 1.9141 1.6992 2.875 4.4609 2.875 8.2812 z" stroke-linecap="round" />
</g>
		<g transform="matrix(1.33 0 0 1.33 -209.2 434.46)"  >
<path style="stroke: none; stroke-width: 1; stroke-dasharray: none; stroke-linecap: butt; stroke-dashoffset: 0; stroke-linejoin: miter; stroke-miterlimit: 4; fill: rgb(0,0,0); fill-rule: nonzero; opacity: 1;"  transform=" translate(-10.24, 15.36)" d="m 12.031 -30.719 v 6.7969 h 7.875 v 5.4688 h -7.875 v 10.141 c 0 1.1172 0.21875 1.8711 0.65625 2.2656 c 0.4375 0.38672 1.3125 0.57812 2.625 0.57812 h 3.9375 v 5.4688 h -6.5625 c -3.0234 0 -5.1641 -0.62891 -6.4219 -1.8906 c -1.2617 -1.2578 -1.8906 -3.3984 -1.8906 -6.4219 v -10.141 h -3.7969 v -5.4688 h 3.7969 v -6.7969 z" stroke-linecap="round" />
</g>
		<g transform="matrix(1.33 0 0 1.33 -175.36 439.04)"  >
<path style="stroke: none; stroke-width: 1; stroke-dasharray: none; stroke-linecap: butt; stroke-dashoffset: 0; stroke-linejoin: miter; stroke-miterlimit: 4; fill: rgb(0,0,0); fill-rule: nonzero; opacity: 1;"  transform=" translate(-14.72, 11.94)" d="m 27.562 -12.031 v 2.1875 h -17.891 c 0.1875 1.793 0.83203 3.1367 1.9375 4.0312 c 1.1133 0.89844 2.6719 1.3438 4.6719 1.3438 c 1.6016 0 3.25 -0.23438 4.9375 -0.70312 c 1.6875 -0.47656 3.4219 -1.2031 5.2031 -2.1719 v 5.8906 c -1.8047 0.6875 -3.6094 1.2031 -5.4219 1.5469 c -1.8125 0.35156 -3.6211 0.53125 -5.4219 0.53125 c -4.3359 0 -7.7031 -1.0977 -10.109 -3.2969 c -2.3984 -2.207 -3.5938 -5.2969 -3.5938 -9.2656 c 0 -3.9062 1.1758 -6.9727 3.5312 -9.2031 c 2.3633 -2.2383 5.6094 -3.3594 9.7344 -3.3594 c 3.7578 0 6.7695 1.1367 9.0312 3.4062 c 2.2578 2.2617 3.3906 5.2812 3.3906 9.0625 z m -7.8594 -2.5312 c 0 -1.457 -0.42969 -2.6289 -1.2812 -3.5156 c -0.84375 -0.89453 -1.9492 -1.3438 -3.3125 -1.3438 c -1.4922 0 -2.6992 0.41797 -3.625 1.25 c -0.91797 0.83594 -1.4922 2.0391 -1.7188 3.6094 z" stroke-linecap="round" />
</g>
		<g transform="matrix(1.33 0 0 1.33 -135.68 433.2)"  >
<path style="stroke: none; stroke-width: 1; stroke-dasharray: none; stroke-linecap: butt; stroke-dashoffset: 0; stroke-linejoin: miter; stroke-miterlimit: 4; fill: rgb(0,0,0); fill-rule: nonzero; opacity: 1;"  transform=" translate(-14.8, 16.3)" d="m 19.953 -20.422 v -12.812 h 7.6875 v 33.234 h -7.6875 v -3.4531 c -1.0547 1.4062 -2.2148 2.4375 -3.4844 3.0938 c -1.2734 0.65625 -2.7422 0.98438 -4.4062 0.98438 c -2.9492 0 -5.3711 -1.1719 -7.2656 -3.5156 c -1.8867 -2.3438 -2.8281 -5.3594 -2.8281 -9.0469 s 0.94141 -6.7031 2.8281 -9.0469 c 1.8945 -2.3438 4.3164 -3.5156 7.2656 -3.5156 c 1.6562 0 3.1172 0.33594 4.3906 1 c 1.2812 0.65625 2.4453 1.6836 3.5 3.0781 z m -5.0469 15.484 c 1.6445 0 2.8945 -0.59766 3.75 -1.7969 c 0.86328 -1.1953 1.2969 -2.9297 1.2969 -5.2031 c 0 -2.2812 -0.43359 -4.0195 -1.2969 -5.2188 c -0.85547 -1.1953 -2.1055 -1.7969 -3.75 -1.7969 c -1.625 0 -2.8711 0.60156 -3.7344 1.7969 c -0.85547 1.1992 -1.2812 2.9375 -1.2812 5.2188 c 0 2.2734 0.42578 4.0078 1.2812 5.2031 c 0.86328 1.1992 2.1094 1.7969 3.7344 1.7969 z" stroke-linecap="round" />
</g>
		<g transform="matrix(1.33 0 0 1.33 -71.34 433.2)"  >
<path style="stroke: none; stroke-width: 1; stroke-dasharray: none; stroke-linecap: butt; stroke-dashoffset: 0; stroke-linejoin: miter; stroke-miterlimit: 4; fill: rgb(0,0,0); fill-rule: nonzero; opacity: 1;"  transform=" translate(-16.52, 16.3)" d="m 16.406 -4.9375 c 1.6328 0 2.8828 -0.59766 3.75 -1.7969 c 0.86328 -1.1953 1.2969 -2.9297 1.2969 -5.2031 c 0 -2.2812 -0.43359 -4.0195 -1.2969 -5.2188 c -0.86719 -1.1953 -2.1172 -1.7969 -3.75 -1.7969 c -1.6367 0 -2.8906 0.60547 -3.7656 1.8125 c -0.875 1.1992 -1.3125 2.9336 -1.3125 5.2031 c 0 2.2617 0.4375 3.9961 1.3125 5.2031 c 0.875 1.1992 2.1289 1.7969 3.7656 1.7969 z m -5.0781 -15.484 c 1.0508 -1.3945 2.2188 -2.4219 3.5 -3.0781 c 1.2812 -0.66406 2.7539 -1 4.4219 -1 c 2.9453 0 5.3672 1.1719 7.2656 3.5156 c 1.8945 2.3438 2.8438 5.3594 2.8438 9.0469 s -0.94922 6.7031 -2.8438 9.0469 c -1.8984 2.3438 -4.3203 3.5156 -7.2656 3.5156 c -1.668 0 -3.1406 -0.33594 -4.4219 -1 s -2.4492 -1.6914 -3.5 -3.0781 v 3.4531 h -7.6562 v -33.234 h 7.6562 z" stroke-linecap="round" />
</g>
		<g transform="matrix(1.33 0 0 1.33 -32.76 445.29)"  >
<path style="stroke: none; stroke-width: 1; stroke-dasharray: none; stroke-linecap: butt; stroke-dashoffset: 0; stroke-linejoin: miter; stroke-miterlimit: 4; fill: rgb(0,0,0); fill-rule: nonzero; opacity: 1;"  transform=" translate(-14.13, 7.24)" d="m 0.53125 -23.922 h 7.6562 l 6.4219 16.234 l 5.4688 -16.234 h 7.6562 l -10.062 26.188 c -1.0117 2.6641 -2.1953 4.5234 -3.5469 5.5781 c -1.3438 1.0625 -3.1211 1.5938 -5.3281 1.5938 h -4.4219 v -5.0156 h 2.3906 c 1.3008 0 2.2422 -0.21094 2.8281 -0.625 c 0.59375 -0.40625 1.0547 -1.1484 1.3906 -2.2188 l 0.20312 -0.65625 z" stroke-linecap="round" />
</g>
		<g transform="matrix(1.33 0 0 1.33 17.59 433.68)"  >
<path style="stroke: none; stroke-width: 1; stroke-dasharray: none; stroke-linecap: butt; stroke-dashoffset: 0; stroke-linejoin: miter; stroke-miterlimit: 4; fill: rgb(0,0,0); fill-rule: nonzero; opacity: 1;"  transform=" translate(-8.13, 15.95)" d="m 4.0156 -31.891 h 8.2188 v 31.891 h -8.2188 z" stroke-linecap="round" />
</g>
		<g transform="matrix(1.33 0 0 1.33 45.02 439.04)"  >
<path style="stroke: none; stroke-width: 1; stroke-dasharray: none; stroke-linecap: butt; stroke-dashoffset: 0; stroke-linejoin: miter; stroke-miterlimit: 4; fill: rgb(0,0,0); fill-rule: nonzero; opacity: 1;"  transform=" translate(-12.44, 11.94)" d="m 23 -23.172 v 6.2344 c -1.0312 -0.71875 -2.0742 -1.2422 -3.125 -1.5781 c -1.043 -0.34375 -2.125 -0.51562 -3.25 -0.51562 c -2.1367 0 -3.8047 0.625 -5 1.875 c -1.1875 1.2422 -1.7812 2.9805 -1.7812 5.2188 c 0 2.2305 0.59375 3.9688 1.7812 5.2188 c 1.1953 1.25 2.8633 1.875 5 1.875 c 1.1953 0 2.332 -0.17578 3.4062 -0.53125 c 1.0703 -0.36328 2.0625 -0.89453 2.9688 -1.5938 v 6.2656 c -1.1875 0.4375 -2.4023 0.76562 -3.6406 0.98438 c -1.2305 0.22656 -2.4648 0.34375 -3.7031 0.34375 c -4.3125 0 -7.6875 -1.1094 -10.125 -3.3281 s -3.6562 -5.2969 -3.6562 -9.2344 c 0 -3.9453 1.2188 -7.0234 3.6562 -9.2344 c 2.4375 -2.2188 5.8125 -3.3281 10.125 -3.3281 c 1.25 0 2.4844 0.10938 3.7031 0.32812 s 2.4297 0.55469 3.6406 1 z" stroke-linecap="round" />
</g>
		<g transform="matrix(1.33 0 0 1.33 83.04 439.04)"  >
<path style="stroke: none; stroke-width: 1; stroke-dasharray: none; stroke-linecap: butt; stroke-dashoffset: 0; stroke-linejoin: miter; stroke-miterlimit: 4; fill: rgb(0,0,0); fill-rule: nonzero; opacity: 1;"  transform=" translate(-15.02, 11.94)" d="m 15.062 -19.031 c -1.6992 0 -2.9961 0.60938 -3.8906 1.8281 c -0.88672 1.2188 -1.3281 2.9766 -1.3281 5.2656 c 0 2.293 0.44141 4.0469 1.3281 5.2656 c 0.89453 1.2188 2.1914 1.8281 3.8906 1.8281 c 1.6641 0 2.9375 -0.60938 3.8125 -1.8281 c 0.88281 -1.2188 1.3281 -2.9727 1.3281 -5.2656 c 0 -2.2891 -0.44531 -4.0469 -1.3281 -5.2656 c -0.875 -1.2188 -2.1484 -1.8281 -3.8125 -1.8281 z m 0 -5.4688 c 4.1133 0 7.3281 1.1094 9.6406 3.3281 s 3.4688 5.2969 3.4688 9.2344 c 0 3.9297 -1.1562 7.0078 -3.4688 9.2344 c -2.3125 2.2188 -5.5273 3.3281 -9.6406 3.3281 c -4.1367 0 -7.3711 -1.1094 -9.7031 -3.3281 c -2.3242 -2.2266 -3.4844 -5.3047 -3.4844 -9.2344 c 0 -3.9375 1.1602 -7.0156 3.4844 -9.2344 c 2.332 -2.2188 5.5664 -3.3281 9.7031 -3.3281 z" stroke-linecap="round" />
</g>
		<g transform="matrix(1.33 0 0 1.33 124.03 438.63)"  >
<path style="stroke: none; stroke-width: 1; stroke-dasharray: none; stroke-linecap: butt; stroke-dashoffset: 0; stroke-linejoin: miter; stroke-miterlimit: 4; fill: rgb(0,0,0); fill-rule: nonzero; opacity: 1;"  transform=" translate(-15.7, 12.25)" d="m 27.734 -14.562 v 14.562 h -7.7031 v -11.156 c 0 -2.0625 -0.046875 -3.4844 -0.14062 -4.2656 c -0.085937 -0.78125 -0.24219 -1.3594 -0.46875 -1.7344 c -0.30469 -0.5 -0.71094 -0.88281 -1.2188 -1.1562 c -0.51172 -0.28125 -1.0938 -0.42188 -1.75 -0.42188 c -1.5938 0 -2.8516 0.61719 -3.7656 1.8438 c -0.90625 1.2305 -1.3594 2.9375 -1.3594 5.125 v 11.766 h -7.6562 v -23.922 h 7.6562 v 3.5 c 1.1445 -1.3945 2.3633 -2.4219 3.6562 -3.0781 c 1.3008 -0.66406 2.7383 -1 4.3125 -1 c 2.7578 0 4.8516 0.85156 6.2812 2.5469 c 1.4375 1.6875 2.1562 4.1523 2.1562 7.3906 z" stroke-linecap="round" />
</g>
		<g transform="matrix(1.33 0 0 1.33 162.12 439.04)"  >
<path style="stroke: none; stroke-width: 1; stroke-dasharray: none; stroke-linecap: butt; stroke-dashoffset: 0; stroke-linejoin: miter; stroke-miterlimit: 4; fill: rgb(0,0,0); fill-rule: nonzero; opacity: 1;"  transform=" translate(-13.12, 11.94)" d="m 22.359 -23.172 v 5.7969 c -1.6367 -0.67578 -3.2148 -1.1875 -4.7344 -1.5312 c -1.5234 -0.34375 -2.9609 -0.51562 -4.3125 -0.51562 c -1.4609 0 -2.543 0.18359 -3.25 0.54688 c -0.69922 0.36719 -1.0469 0.92188 -1.0469 1.6719 c 0 0.61719 0.26562 1.0898 0.79688 1.4219 c 0.53125 0.32422 1.4883 0.5625 2.875 0.71875 l 1.3438 0.1875 c 3.9141 0.5 6.5508 1.3242 7.9062 2.4688 c 1.3516 1.1367 2.0312 2.9219 2.0312 5.3594 c 0 2.5547 -0.94531 4.4688 -2.8281 5.75 c -1.875 1.2812 -4.6797 1.9219 -8.4062 1.9219 c -1.5859 0 -3.2188 -0.125 -4.9062 -0.375 s -3.4219 -0.625 -5.2031 -1.125 v -5.8125 c 1.5195 0.74219 3.082 1.2969 4.6875 1.6719 c 1.6016 0.36719 3.2344 0.54688 4.8906 0.54688 c 1.4883 0 2.6094 -0.20312 3.3594 -0.60938 c 0.75781 -0.41406 1.1406 -1.0312 1.1406 -1.8438 c 0 -0.6875 -0.26172 -1.1953 -0.78125 -1.5312 c -0.52344 -0.33203 -1.5586 -0.59375 -3.1094 -0.78125 l -1.3438 -0.17188 c -3.4062 -0.42578 -5.793 -1.2109 -7.1562 -2.3594 c -1.3672 -1.1562 -2.0469 -2.9102 -2.0469 -5.2656 c 0 -2.5312 0.86719 -4.4062 2.6094 -5.625 c 1.7383 -1.2266 4.3984 -1.8438 7.9844 -1.8438 c 1.4062 0 2.8828 0.10938 4.4375 0.32812 c 1.5508 0.21094 3.2383 0.54297 5.0625 1 z" stroke-linecap="round" />
</g>
		<g transform="matrix(1.33 0 0 1.33 193 434.46)"  >
<path style="stroke: none; stroke-width: 1; stroke-dasharray: none; stroke-linecap: butt; stroke-dashoffset: 0; stroke-linejoin: miter; stroke-miterlimit: 4; fill: rgb(0,0,0); fill-rule: nonzero; opacity: 1;"  transform=" translate(-10.24, 15.36)" d="m 12.031 -30.719 v 6.7969 h 7.875 v 5.4688 h -7.875 v 10.141 c 0 1.1172 0.21875 1.8711 0.65625 2.2656 c 0.4375 0.38672 1.3125 0.57812 2.625 0.57812 h 3.9375 v 5.4688 h -6.5625 c -3.0234 0 -5.1641 -0.62891 -6.4219 -1.8906 c -1.2617 -1.2578 -1.8906 -3.3984 -1.8906 -6.4219 v -10.141 h -3.7969 v -5.4688 h 3.7969 v -6.7969 z" stroke-linecap="round" />
</g>
		<g transform="matrix(1.33 0 0 1.33 227.25 439.04)"  >
<path style="stroke: none; stroke-width: 1; stroke-dasharray: none; stroke-linecap: butt; stroke-dashoffset: 0; stroke-linejoin: miter; stroke-miterlimit: 4; fill: rgb(0,0,0); fill-rule: nonzero; opacity: 1;"  transform=" translate(-15.02, 11.94)" d="m 15.062 -19.031 c -1.6992 0 -2.9961 0.60938 -3.8906 1.8281 c -0.88672 1.2188 -1.3281 2.9766 -1.3281 5.2656 c 0 2.293 0.44141 4.0469 1.3281 5.2656 c 0.89453 1.2188 2.1914 1.8281 3.8906 1.8281 c 1.6641 0 2.9375 -0.60938 3.8125 -1.8281 c 0.88281 -1.2188 1.3281 -2.9727 1.3281 -5.2656 c 0 -2.2891 -0.44531 -4.0469 -1.3281 -5.2656 c -0.875 -1.2188 -2.1484 -1.8281 -3.8125 -1.8281 z m 0 -5.4688 c 4.1133 0 7.3281 1.1094 9.6406 3.3281 s 3.4688 5.2969 3.4688 9.2344 c 0 3.9297 -1.1562 7.0078 -3.4688 9.2344 c -2.3125 2.2188 -5.5273 3.3281 -9.6406 3.3281 c -4.1367 0 -7.3711 -1.1094 -9.7031 -3.3281 c -2.3242 -2.2266 -3.4844 -5.3047 -3.4844 -9.2344 c 0 -3.9375 1.1602 -7.0156 3.4844 -9.2344 c 2.332 -2.2188 5.5664 -3.3281 9.7031 -3.3281 z" stroke-linecap="round" />
</g>
		<g transform="matrix(1.33 0 0 1.33 263.89 439.04)"  >
<path style="stroke: none; stroke-width: 1; stroke-dasharray: none; stroke-linecap: butt; stroke-dashoffset: 0; stroke-linejoin: miter; stroke-miterlimit: 4; fill: rgb(0,0,0); fill-rule: nonzero; opacity: 1;"  transform=" translate(-12.44, 11.94)" d="m 23 -23.172 v 6.2344 c -1.0312 -0.71875 -2.0742 -1.2422 -3.125 -1.5781 c -1.043 -0.34375 -2.125 -0.51562 -3.25 -0.51562 c -2.1367 0 -3.8047 0.625 -5 1.875 c -1.1875 1.2422 -1.7812 2.9805 -1.7812 5.2188 c 0 2.2305 0.59375 3.9688 1.7812 5.2188 c 1.1953 1.25 2.8633 1.875 5 1.875 c 1.1953 0 2.332 -0.17578 3.4062 -0.53125 c 1.0703 -0.36328 2.0625 -0.89453 2.9688 -1.5938 v 6.2656 c -1.1875 0.4375 -2.4023 0.76562 -3.6406 0.98438 c -1.2305 0.22656 -2.4648 0.34375 -3.7031 0.34375 c -4.3125 0 -7.6875 -1.1094 -10.125 -3.3281 s -3.6562 -5.2969 -3.6562 -9.2344 c 0 -3.9453 1.2188 -7.0234 3.6562 -9.2344 c 2.4375 -2.2188 5.8125 -3.3281 10.125 -3.3281 c 1.25 0 2.4844 0.10938 3.7031 0.32812 s 2.4297 0.55469 3.6406 1 z" stroke-linecap="round" />
</g>
		<g transform="matrix(1.33 0 0 1.33 304.27 432.79)"  >
<path style="stroke: none; stroke-width: 1; stroke-dasharray: none; stroke-linecap: butt; stroke-dashoffset: 0; stroke-linejoin: miter; stroke-miterlimit: 4; fill: rgb(0,0,0); fill-rule: nonzero; opacity: 1;"  transform=" translate(-16.8, 16.62)" d="m 3.6719 -33.234 h 7.6562 v 18.094 l 8.7969 -8.7812 h 8.8906 l -11.688 10.969 l 12.594 12.953 h -9.2656 l -9.3281 -9.9688 v 9.9688 h -7.6562 z" stroke-linecap="round" />
</g>
</g>
</g>
</svg>